<svg width="32" height="32" viewBox="0 0 32 32" fill="none" xmlns="http://www.w3.org/2000/svg">
<rect width="32" height="32" rx="16" fill="#1F1F1F"/>
<path d="M22.1952 20.4689C21.9532 21.0279 21.6668 21.5424 21.335 22.0155C20.8826 22.6604 20.5122 23.1068 20.2268 23.3547C19.7843 23.7616 19.3102 23.97 18.8026 23.9818C18.4381 23.9818 17.9986 23.8781 17.487 23.6678C16.9737 23.4584 16.502 23.3547 16.0707 23.3547C15.6184 23.3547 15.1332 23.4584 14.6143 23.6678C14.0946 23.8781 13.6759 23.9878 13.3558 23.9986C12.869 24.0194 12.3837 23.8051 11.8994 23.3547C11.5903 23.0851 11.2036 22.6229 10.7404 21.9681C10.2434 21.2688 9.83478 20.458 9.51467 19.5336C9.17185 18.5351 9 17.5682 9 16.6321C9 15.5599 9.23171 14.6351 9.69581 13.8601C10.0606 13.2376 10.5458 12.7465 11.1531 12.386C11.7604 12.0256 12.4166 11.8419 13.1233 11.8301C13.51 11.8301 14.017 11.9497 14.6472 12.1848C15.2755 12.4206 15.679 12.5402 15.8559 12.5402C15.9881 12.5402 16.4363 12.4004 17.1961 12.1216C17.9147 11.863 18.5211 11.7559 19.0179 11.7981C20.3641 11.9067 21.3755 12.4374 22.0481 13.3934C20.8441 14.1229 20.2485 15.1446 20.2604 16.4553C20.2712 17.4762 20.6416 18.3257 21.3695 19.0003C21.6994 19.3133 22.0678 19.5553 22.4777 19.7272C22.3888 19.9849 22.295 20.2318 22.1952 20.4689ZM19.1078 8.32009C19.1078 9.12027 18.8154 9.8674 18.2327 10.5589C17.5295 11.381 16.6789 11.8561 15.7565 11.7811C15.7448 11.6851 15.738 11.5841 15.738 11.4779C15.738 10.7097 16.0724 9.88765 16.6663 9.21547C16.9628 8.87514 17.3399 8.59215 17.7971 8.36641C18.2534 8.14404 18.6851 8.02106 19.091 8C19.1028 8.10697 19.1078 8.21395 19.1078 8.32008V8.32009Z" fill="white"/>
</svg>
