<svg width="32" height="32" viewBox="0 0 32 32" fill="none" xmlns="http://www.w3.org/2000/svg">
<path d="M23.8421 14.4365H23.1979V14.4034H15.9996V17.6031H20.5197C19.8603 19.4657 18.0883 20.8028 15.9996 20.8028C13.3494 20.8028 11.2007 18.6538 11.2007 16.0032C11.2007 13.3526 13.3494 11.2036 15.9996 11.2036C17.2229 11.2036 18.3358 11.6652 19.1832 12.4191L21.4455 10.1565C20.017 8.82504 18.1063 8.00391 15.9996 8.00391C11.5826 8.00391 8.00146 11.5856 8.00146 16.0032C8.00146 20.4208 11.5826 24.0025 15.9996 24.0025C20.4165 24.0025 23.9977 20.4208 23.9977 16.0032C23.9977 15.4669 23.9425 14.9433 23.8421 14.4365Z" fill="#FFC107"/>
<path d="M8.92383 12.2799L11.5516 14.2074C12.2626 12.4467 13.9846 11.2036 15.9998 11.2036C17.2231 11.2036 18.336 11.6652 19.1834 12.4191L21.4457 10.1565C20.0172 8.82504 18.1065 8.00391 15.9998 8.00391C12.9277 8.00391 10.2635 9.73856 8.92383 12.2799Z" fill="#FF3D00"/>
<path d="M15.9997 24.0028C18.0656 24.0028 19.9428 23.2121 21.362 21.9262L18.8866 19.8312C18.0836 20.4396 17.0855 20.8031 15.9997 20.8031C13.9194 20.8031 12.153 19.4764 11.4876 17.625L8.87939 19.6348C10.2031 22.2254 12.8912 24.0028 15.9997 24.0028Z" fill="#4CAF50"/>
<path d="M23.8425 14.4277H23.1983V14.3945H16V17.5943H20.5201C20.2034 18.489 19.6279 19.2605 18.8857 19.8225C18.8861 19.8221 18.8865 19.8221 18.8869 19.8217L21.3623 21.9167C21.1872 22.0759 23.9981 19.994 23.9981 15.9944C23.9981 15.458 23.9429 14.9345 23.8425 14.4277Z" fill="#1976D2"/>
<!-- <rect x="0.5" y="0.5" width="31" height="31" rx="15.5" stroke="#E4E9F0"/> -->
</svg>
