<svg width="145" height="35" viewBox="0 0 145 35" fill="none" xmlns="http://www.w3.org/2000/svg">
<g id="Logo" filter="url(#filter0_d_5_161)">
<g id="Symbol">
<path id="Vector 2" d="M31.3358 15.7406C32.0145 11.227 32.3875 6.63333 34.1199 6.50704C30.9385 6.12494 24.3023 21.4495 22.3599 13.7405C23.52 20.1205 24.2567 24.5 26.903 24.5C29.7144 24.5 30.6715 20.1586 31.3358 15.7406Z" fill="#DDB1FF"/>
<path id="Vector 1" d="M15.5317 0.5C23.6492 0.5 21.2137 24.5 26.8963 24.5C29.7071 24.5 30.6641 20.1569 31.3283 15.7372C32.0069 11.2218 32.3798 6.62634 34.1119 6.5C37.5393 6.25 39.76 14.5828 39.76 18.7384C35.5623 18.7384 34.1119 12.8458 31.3283 15.7372C30.6641 20.1569 29.7071 24.5 26.8963 24.5C23.1571 24.5 21.9316 15.1985 14.828 14.5828C7.72435 13.9672 4 17.9689 4 17.9689C4 13.4597 8.55619 0.5 15.5317 0.5Z" fill="url(#paint0_linear_5_161)"/>
</g>
<g id="Logotype">
<path d="M51.5601 21.3034V3.74303H55.721L61.5415 17.8854H61.5662L67.3619 3.74303H71.5229V21.3034H68.6003V7.80495H68.5508L62.9285 21.3034H60.1545L54.5074 7.82972H54.4579V21.3034H51.5601Z" fill="#0A0A0A"/>
<path d="M78.9749 27C78.0172 27 77.1256 26.8844 76.3 26.6532C75.4744 26.4221 74.7479 26.0918 74.1204 25.6625C73.5095 25.2332 73.0141 24.7379 72.6344 24.1765L74.1452 22.2941C74.4424 22.7564 74.8222 23.161 75.2845 23.5077C75.7634 23.8545 76.3 24.1269 76.8944 24.3251C77.4888 24.5232 78.1246 24.6223 78.8015 24.6223C79.6767 24.6223 80.4362 24.4572 81.0802 24.1269C81.7241 23.8132 82.2195 23.3591 82.5662 22.7647C82.913 22.1868 83.0864 21.5015 83.0864 20.709V19.6192H83.0616C82.6488 20.3787 82.0626 20.9732 81.3031 21.4025C80.5601 21.8483 79.751 22.0712 78.8758 22.0712C77.8851 22.0712 77.0183 21.8483 76.2752 21.4025C75.5487 20.9567 74.979 20.3375 74.5662 19.5449C74.17 18.7358 73.9718 17.8194 73.9718 16.7957V8.69659H76.7706V16.4737C76.7706 17.1011 76.8862 17.6625 77.1173 18.1579C77.3485 18.6532 77.6787 19.033 78.108 19.2972C78.5539 19.5614 79.074 19.6935 79.6684 19.6935C80.2794 19.6935 80.8408 19.5449 81.3526 19.2477C81.881 18.9505 82.2938 18.5459 82.591 18.0341C82.9047 17.5057 83.0616 16.903 83.0616 16.226V8.69659H85.8356L85.8604 20.7585C85.8604 22.0464 85.5797 23.1527 85.0183 24.0774C84.4569 25.0186 83.656 25.7368 82.6158 26.2322C81.5755 26.7441 80.3619 27 78.9749 27Z" fill="#0A0A0A"/>
<path d="M95.2822 21.9226C93.8787 21.9226 92.6073 21.6749 91.4679 21.1796C90.3451 20.6842 89.437 19.9825 88.7435 19.0743C88.05 18.1662 87.6372 17.1094 87.5051 15.904L90.4029 15.3591C90.469 16.1517 90.7249 16.8617 91.1707 17.4892C91.6166 18.1166 92.2027 18.6037 92.9292 18.9505C93.6558 19.2972 94.4649 19.4706 95.3565 19.4706C96.1491 19.4706 96.8426 19.3468 97.437 19.0991C98.0479 18.8514 98.5103 18.5129 98.824 18.0836C99.1542 17.6378 99.3193 17.1424 99.3193 16.5975C99.3193 15.9205 99.0552 15.3756 98.5268 14.9628C97.9984 14.5501 97.1563 14.2198 96.0005 13.9721L93.3503 13.4025C91.6166 13.0392 90.3369 12.4778 89.5113 11.7183C88.7022 10.9422 88.2977 9.91847 88.2977 8.64706C88.2977 7.55727 88.5701 6.59959 89.115 5.77399C89.6599 4.93189 90.4194 4.27967 91.3936 3.81734C92.3678 3.355 93.4824 3.12384 94.7373 3.12384C95.8766 3.12384 96.9086 3.33849 97.8333 3.7678C98.7744 4.1806 99.5423 4.76677 100.137 5.52632C100.731 6.26935 101.111 7.14448 101.276 8.1517L98.4277 8.79567C98.3617 8.1517 98.1553 7.5903 97.8085 7.11146C97.4783 6.63261 97.0407 6.26109 96.4958 5.9969C95.9674 5.7162 95.3813 5.57585 94.7373 5.57585C94.0603 5.57585 93.4659 5.69969 92.954 5.94737C92.4422 6.17853 92.0459 6.50052 91.7652 6.91331C91.4845 7.32611 91.3441 7.78844 91.3441 8.30031C91.3441 8.92776 91.567 9.43963 92.0128 9.83591C92.4752 10.2157 93.2182 10.5129 94.2419 10.7276L96.9169 11.2724C98.7497 11.6192 100.112 12.2054 101.004 13.031C101.895 13.84 102.341 14.8968 102.341 16.2012C102.341 17.3406 102.044 18.3478 101.449 19.2229C100.871 20.0815 100.046 20.7503 98.9726 21.2291C97.9158 21.6914 96.6857 21.9226 95.2822 21.9226Z" fill="#0A0A0A"/>
<path d="M103.894 21.3034V3H106.693V10.7771H106.717C107.213 9.96801 107.848 9.34881 108.624 8.9195C109.417 8.4902 110.333 8.27554 111.374 8.27554C112.282 8.27554 113.066 8.45717 113.727 8.82043C114.387 9.18369 114.891 9.72033 115.237 10.4303C115.601 11.1238 115.782 11.9494 115.782 12.9071V21.3034H112.984V13.5759C112.984 12.6677 112.736 11.9494 112.241 11.4211C111.762 10.8927 111.101 10.6285 110.259 10.6285C109.582 10.6285 108.971 10.7853 108.426 11.0991C107.881 11.3963 107.452 11.8256 107.138 12.387C106.841 12.9319 106.693 13.5593 106.693 14.2694V21.3034H103.894Z" fill="#0A0A0A"/>
<path d="M124.709 21.7988C123.322 21.7988 122.075 21.5015 120.969 20.9071C119.863 20.3127 118.996 19.4954 118.368 18.4551C117.757 17.4149 117.452 16.2343 117.452 14.9133C117.452 13.6089 117.733 12.453 118.294 11.4458C118.855 10.4221 119.64 9.62951 120.647 9.06811C121.654 8.4902 122.793 8.20124 124.065 8.20124C125.32 8.20124 126.418 8.48194 127.359 9.04334C128.317 9.60475 129.06 10.3808 129.588 11.3715C130.116 12.3457 130.389 13.4768 130.405 14.7647C130.405 14.9463 130.397 15.128 130.381 15.3096C130.364 15.4912 130.339 15.6646 130.306 15.8297H120.35C120.416 16.5728 120.647 17.2332 121.043 17.8111C121.456 18.3725 121.984 18.8101 122.628 19.1238C123.272 19.4376 123.991 19.5944 124.783 19.5944C125.658 19.5944 126.459 19.4045 127.186 19.0248C127.929 18.6285 128.49 18.1249 128.87 17.5139L130.727 18.6533C130.43 19.2642 129.984 19.8091 129.39 20.2879C128.796 20.7668 128.094 21.1383 127.285 21.4025C126.476 21.6667 125.617 21.7988 124.709 21.7988ZM127.532 13.9226C127.466 13.1961 127.285 12.5686 126.987 12.0402C126.69 11.5119 126.286 11.1073 125.774 10.8266C125.279 10.5459 124.709 10.4056 124.065 10.4056C123.404 10.4056 122.81 10.5542 122.282 10.8514C121.753 11.1486 121.316 11.5614 120.969 12.0898C120.639 12.6182 120.432 13.2291 120.35 13.9226H127.532Z" fill="#0A0A0A"/>
<path d="M132.386 21.3034V3H135.185V21.3034H132.386Z" fill="#0A0A0A"/>
<path d="M137.417 21.3034V3H140.216V21.3034H137.417Z" fill="#0A0A0A"/>
</g>
</g>
<defs>
<filter id="filter0_d_5_161" x="0" y="0.5" width="145" height="35" filterUnits="userSpaceOnUse" color-interpolation-filters="sRGB">
<feFlood flood-opacity="0" result="BackgroundImageFix"/>
<feColorMatrix in="SourceAlpha" type="matrix" values="0 0 0 0 0 0 0 0 0 0 0 0 0 0 0 0 0 0 127 0" result="hardAlpha"/>
<feOffset dy="4"/>
<feGaussianBlur stdDeviation="2"/>
<feComposite in2="hardAlpha" operator="out"/>
<feColorMatrix type="matrix" values="0 0 0 0 0 0 0 0 0 0 0 0 0 0 0 0 0 0 0.25 0"/>
<feBlend mode="normal" in2="BackgroundImageFix" result="effect1_dropShadow_5_161"/>
<feBlend mode="normal" in="SourceGraphic" in2="effect1_dropShadow_5_161" result="shape"/>
</filter>
<linearGradient id="paint0_linear_5_161" x1="4" y1="9" x2="40" y2="9" gradientUnits="userSpaceOnUse">
<stop stop-color="#3239DC"/>
<stop offset="0.0001" stop-color="#0026AB"/>
<stop offset="1" stop-color="#7859F2"/>
<stop offset="1" stop-color="#5A38E2"/>
</linearGradient>
</defs>
</svg>
