<svg width="32" height="32" viewBox="0 0 32 32" fill="none" xmlns="http://www.w3.org/2000/svg">
<rect x="0.5" y="0.5" width="31" height="31" rx="15.5" fill="white"/>
<path d="M24.5607 8.69824L17.7603 13.7489L19.018 10.7687L24.5607 8.69824Z" fill="#E2761B" stroke="#E2761B" stroke-width="0.677761" stroke-linecap="round" stroke-linejoin="round"/>
<path d="M8.86208 8.69824L15.6079 13.7971L14.4118 10.7693L8.86208 8.69824ZM22.1139 20.4059L20.3031 23.1805L24.1779 24.2471L25.2922 20.4675L22.1144 20.4059H22.1139ZM8.14404 20.4675L9.25131 24.2471L13.1262 23.1805L11.3154 20.4059L8.14404 20.4675Z" fill="#E4761B" stroke="#E4761B" stroke-width="0.677761" stroke-linecap="round" stroke-linejoin="round"/>
<path d="M12.908 15.7171L11.8286 17.3502L15.6767 17.5215L15.5402 13.3864L12.9086 15.7171H12.908ZM20.5154 15.7177L17.85 13.3394L17.7612 17.5221L21.6017 17.3513L20.5154 15.7177ZM13.1258 23.181L15.4362 22.0529L13.4401 20.4948L13.1264 23.1805L13.1258 23.181ZM17.986 22.0529L20.3028 23.1805L19.9815 20.4948L17.986 22.0529Z" fill="#E4761B" stroke="#E4761B" stroke-width="0.677761" stroke-linecap="round" stroke-linejoin="round"/>
<path d="M20.301 23.1798L17.9837 22.0528L18.1684 23.5633L18.1481 24.1982L20.301 23.1798ZM13.1241 23.1798L15.2771 24.1982L15.2637 23.5627L15.4345 22.0522L13.1235 23.181L13.1241 23.1798Z" fill="#D7C1B3" stroke="#D7C1B3" stroke-width="0.677761" stroke-linecap="round" stroke-linejoin="round"/>
<path d="M15.3132 19.4979L13.3862 18.9303L14.7462 18.3081L15.3132 19.4973V19.4979ZM18.1087 19.4979L18.6763 18.3081L20.0432 18.9297L18.1087 19.4973V19.4979Z" fill="#233447" stroke="#233447" stroke-width="0.677761" stroke-linecap="round" stroke-linejoin="round"/>
<path d="M13.1258 23.1803L13.4535 20.4052L11.3145 20.4667L13.1258 23.1797V23.1803ZM19.9739 20.4052L20.3021 23.1803L22.1135 20.4673L19.9739 20.4052ZM21.6011 17.3506L17.76 17.5214L18.1155 19.4966L18.6825 18.3074L20.0494 18.929L21.6005 17.3506H21.6011ZM13.3855 18.929L14.7524 18.3074L15.3131 19.4966L15.675 17.5214L11.8274 17.3506L13.3855 18.929Z" fill="#CD6116" stroke="#CD6116" stroke-width="0.677761" stroke-linecap="round" stroke-linejoin="round"/>
<path d="M11.8267 17.3506L13.4399 20.494L13.3853 18.929L11.8267 17.3506ZM20.0487 18.929L19.9807 20.494L21.6004 17.3506L20.0493 18.929H20.0487ZM15.6748 17.5214L15.3129 19.4966L15.7637 21.8273L15.8665 18.7582L15.6748 17.5214ZM17.7586 17.5214L17.5745 18.7518L17.6558 21.8273L18.1142 19.4966L17.7586 17.5214Z" fill="#E4751F" stroke="#E4751F" stroke-width="0.677761" stroke-linecap="round" stroke-linejoin="round"/>
<path d="M18.1158 19.4973L17.6581 21.828L17.9857 22.0534L19.9818 20.4947L20.0498 18.9297L18.1153 19.4973H18.1158ZM13.3853 18.9297L13.4404 20.4953L15.436 22.0534L15.7642 21.828L15.3128 19.4973L13.3858 18.9297H13.3853Z" fill="#F6851B" stroke="#F6851B" stroke-width="0.677761" stroke-linecap="round" stroke-linejoin="round"/>
<path d="M18.1489 24.1995L18.1692 23.5634L17.9984 23.4135H15.4219L15.2645 23.564L15.2779 24.1995L13.1255 23.1812L13.8772 23.7958L15.401 24.8554H18.0187L19.5501 23.7958L20.3018 23.1812L18.1489 24.1995Z" fill="#C0AD9E" stroke="#C0AD9E" stroke-width="0.677761" stroke-linecap="round" stroke-linejoin="round"/>
<path d="M17.9862 22.053L17.6579 21.8276H15.7647L15.4364 22.053L15.2656 23.5635L15.4225 23.413H17.9995L18.1703 23.5635L17.9862 22.053Z" fill="#161616" stroke="#161616" stroke-width="0.677761" stroke-linecap="round" stroke-linejoin="round"/>
<path d="M24.8472 14.0772L25.4282 11.2886L24.5602 8.69824L17.9852 13.5781L20.514 15.7171L24.0885 16.7628L24.8815 15.8403L24.5399 15.5946L25.086 15.095L24.6625 14.7673L25.2097 14.3508L24.8472 14.0772ZM8 11.2886L8.58094 14.0772L8.21204 14.3502L8.75812 14.7673L8.34159 15.0955L8.88825 15.5946L8.54666 15.8403L9.33267 16.7634L12.9072 15.7177L15.436 13.5781L8.86095 8.69824L8 11.2886Z" fill="#763D16" stroke="#763D16" stroke-width="0.677761" stroke-linecap="round" stroke-linejoin="round"/>
<path d="M24.0896 16.7632L20.5145 15.7175L21.6015 17.3511L19.9818 20.4951L22.1139 20.4678H25.2922L24.0896 16.7632ZM12.9077 15.7175L9.33322 16.7632L8.14404 20.4678H11.3154L13.441 20.4951L11.8278 17.3511L12.9077 15.7175ZM17.7603 17.5219L17.9869 13.5779L19.025 10.769H14.4124L15.4366 13.5779L15.6759 17.5219L15.7572 18.7651L15.7648 21.8272H17.6581L17.6714 18.7657L17.7603 17.5219Z" fill="#F6851B" stroke="#F6851B" stroke-width="0.677761" stroke-linecap="round" stroke-linejoin="round"/>
<rect x="0.5" y="0.5" width="31" height="31" rx="15.5" stroke="#E4E9F0"/>
</svg>
