<svg width="32" height="32" viewBox="0 0 32 32" fill="none" xmlns="http://www.w3.org/2000/svg">
<rect width="32" height="32" rx="16" fill="#468FF6"/>
<path d="M11.2753 12.9453C13.8845 10.3359 18.115 10.3359 20.7242 12.9453L21.0383 13.2594C21.1688 13.3898 21.1688 13.6014 21.0383 13.7318L19.9641 14.8061C19.8988 14.8713 19.7931 14.8713 19.7279 14.8061L19.2957 14.3739C17.4754 12.5535 14.5241 12.5535 12.7038 14.3739L12.2411 14.8367C12.1759 14.902 12.0701 14.902 12.0049 14.8367L10.9306 13.7625C10.8002 13.632 10.8002 13.4205 10.9306 13.29L11.2753 12.9453ZM22.9459 15.167L23.9019 16.1232C24.0324 16.2536 24.0324 16.4652 23.9019 16.5956L19.591 20.9068C19.4605 21.0373 19.249 21.0373 19.1185 20.9068L16.0589 17.847C16.0263 17.8145 15.9734 17.8145 15.9408 17.847L12.8811 20.9068C12.7507 21.0373 12.5391 21.0373 12.4087 20.9068L8.0976 16.5955C7.96714 16.4651 7.96714 16.2535 8.0976 16.123L9.05367 15.167C9.18414 15.0364 9.39566 15.0364 9.52612 15.167L12.5859 18.2268C12.6184 18.2594 12.6713 18.2594 12.704 18.2268L15.7635 15.167C15.8939 15.0364 16.1055 15.0364 16.236 15.167L19.2957 18.2268C19.3283 18.2594 19.3812 18.2594 19.4137 18.2268L22.4734 15.167C22.6039 15.0365 22.8155 15.0365 22.9459 15.167Z" fill="white"/>
</svg>
